<?xml version="1.0" encoding="UTF-8"?><svg xmlns="http://www.w3.org/2000/svg" xmlns:xlink="http://www.w3.org/1999/xlink" fill-opacity="1" color-rendering="auto" color-interpolation="auto" text-rendering="auto" stroke="black" stroke-linecap="square" width="922" stroke-miterlimit="10" shape-rendering="auto" stroke-opacity="1" fill="black" stroke-dasharray="none" font-weight="normal" stroke-width="1" height="284" font-family="'Dialog'" font-style="normal" stroke-linejoin="miter" font-size="12px" stroke-dashoffset="0" image-rendering="auto">
  <!--Generated by ySVG 2.5-->
  <defs id="genericDefs"/>
  <g>
    <defs id="defs1">
      <clipPath clipPathUnits="userSpaceOnUse" id="clipPath1">
        <path d="M0 0 L922 0 L922 284 L0 284 L0 0 Z"/>
      </clipPath>
      <clipPath clipPathUnits="userSpaceOnUse" id="clipPath2">
        <path d="M248 329 L1170 329 L1170 613 L248 613 L248 329 Z"/>
      </clipPath>
    </defs>
    <g fill="white" text-rendering="geometricPrecision" shape-rendering="geometricPrecision" transform="translate(-248,-329)" stroke="white">
      <rect x="248" width="922" height="284" y="329" clip-path="url(#clipPath2)" stroke="none"/>
    </g>
    <g fill="rgb(255,204,0)" text-rendering="geometricPrecision" shape-rendering="geometricPrecision" transform="matrix(1,0,0,1,-248,-329)" stroke="rgb(255,204,0)">
      <rect x="635.6" width="74.16" height="30" y="344.24" clip-path="url(#clipPath2)" stroke="none"/>
    </g>
    <g text-rendering="geometricPrecision" stroke-miterlimit="1.45" shape-rendering="geometricPrecision" transform="matrix(1,0,0,1,-248,-329)" stroke-linecap="butt">
      <rect fill="none" x="635.6" width="74.16" height="30" y="344.24" clip-path="url(#clipPath2)"/>
      <text x="650.5081" xml:space="preserve" y="363.3943" clip-path="url(#clipPath2)" font-family="sans-serif" stroke="none">Parsers</text>
    </g>
    <g fill="rgb(255,204,0)" text-rendering="geometricPrecision" shape-rendering="geometricPrecision" transform="matrix(1,0,0,1,-248,-329)" stroke="rgb(255,204,0)">
      <rect x="403.84" width="96.56" height="30" y="413.2" clip-path="url(#clipPath2)" stroke="none"/>
    </g>
    <g text-rendering="geometricPrecision" stroke-miterlimit="1.45" shape-rendering="geometricPrecision" transform="matrix(1,0,0,1,-248,-329)" stroke-linecap="butt">
      <rect fill="none" x="403.84" width="96.56" height="30" y="413.2" clip-path="url(#clipPath2)"/>
      <text x="411.8895" xml:space="preserve" y="425.3699" clip-path="url(#clipPath2)" font-family="sans-serif" stroke="none">Hand-Written</text>
      <text x="429.9481" xml:space="preserve" y="439.3387" clip-path="url(#clipPath2)" font-family="sans-serif" stroke="none">Parsers</text>
    </g>
    <g fill="rgb(255,204,0)" text-rendering="geometricPrecision" shape-rendering="geometricPrecision" transform="matrix(1,0,0,1,-248,-329)" stroke="rgb(255,204,0)">
      <rect x="844.96" width="74.16" height="30" y="396.68" clip-path="url(#clipPath2)" stroke="none"/>
    </g>
    <g text-rendering="geometricPrecision" stroke-miterlimit="1.45" shape-rendering="geometricPrecision" transform="matrix(1,0,0,1,-248,-329)" stroke-linecap="butt">
      <rect fill="none" x="844.96" width="74.16" height="30" y="396.68" clip-path="url(#clipPath2)"/>
      <text x="850.2089" xml:space="preserve" y="408.8499" clip-path="url(#clipPath2)" font-family="sans-serif" stroke="none">Generated</text>
      <text x="859.8681" xml:space="preserve" y="422.8187" clip-path="url(#clipPath2)" font-family="sans-serif" stroke="none">Parsers</text>
    </g>
    <g fill="rgb(255,204,0)" text-rendering="geometricPrecision" shape-rendering="geometricPrecision" transform="matrix(1,0,0,1,-248,-329)" stroke="rgb(255,204,0)">
      <rect x="388.48" width="127.28" height="30" y="468" clip-path="url(#clipPath2)" stroke="none"/>
    </g>
    <g text-rendering="geometricPrecision" stroke-miterlimit="1.45" shape-rendering="geometricPrecision" transform="matrix(1,0,0,1,-248,-329)" stroke-linecap="butt">
      <rect fill="none" x="388.48" width="127.28" height="30" y="468" clip-path="url(#clipPath2)"/>
      <text x="395.9081" xml:space="preserve" y="480.1699" clip-path="url(#clipPath2)" font-family="sans-serif" stroke="none">Recursive-Descent</text>
      <text x="414.5702" xml:space="preserve" y="494.1387" clip-path="url(#clipPath2)" font-family="sans-serif" stroke="none">(RD) Parsers</text>
    </g>
    <g fill="rgb(255,204,0)" text-rendering="geometricPrecision" shape-rendering="geometricPrecision" transform="matrix(1,0,0,1,-248,-329)" stroke="rgb(255,204,0)">
      <rect x="692.56" width="122.8" height="30" y="468" clip-path="url(#clipPath2)" stroke="none"/>
    </g>
    <g text-rendering="geometricPrecision" stroke-miterlimit="1.45" shape-rendering="geometricPrecision" transform="matrix(1,0,0,1,-248,-329)" stroke-linecap="butt">
      <rect fill="none" x="692.56" width="122.8" height="30" y="468" clip-path="url(#clipPath2)"/>
      <text x="697.9942" xml:space="preserve" y="480.1699" clip-path="url(#clipPath2)" font-family="sans-serif" stroke="none">Lexical Analyzers /</text>
      <text x="719.2139" xml:space="preserve" y="494.1387" clip-path="url(#clipPath2)" font-family="sans-serif" stroke="none">Tokenizers)</text>
    </g>
    <g fill="rgb(255,204,0)" text-rendering="geometricPrecision" shape-rendering="geometricPrecision" transform="matrix(1,0,0,1,-248,-329)" stroke="rgb(255,204,0)">
      <rect x="949.12" width="119.6" height="30" y="464.16" clip-path="url(#clipPath2)" stroke="none"/>
    </g>
    <g text-rendering="geometricPrecision" stroke-miterlimit="1.45" shape-rendering="geometricPrecision" transform="matrix(1,0,0,1,-248,-329)" stroke-linecap="butt">
      <rect fill="none" x="949.12" width="119.6" height="30" y="464.16" clip-path="url(#clipPath2)"/>
      <text x="957.0352" xml:space="preserve" y="483.3143" clip-path="url(#clipPath2)" font-family="sans-serif" stroke="none">Syntax Analyzers</text>
    </g>
    <g fill="rgb(255,204,0)" text-rendering="geometricPrecision" shape-rendering="geometricPrecision" transform="matrix(1,0,0,1,-248,-329)" stroke="rgb(255,204,0)">
      <rect x="263.64" width="115.76" height="30" y="522.8" clip-path="url(#clipPath2)" stroke="none"/>
    </g>
    <g text-rendering="geometricPrecision" stroke-miterlimit="1.45" shape-rendering="geometricPrecision" transform="matrix(1,0,0,1,-248,-329)" stroke-linecap="butt">
      <rect fill="none" x="263.64" width="115.76" height="30" y="522.8" clip-path="url(#clipPath2)"/>
      <text x="270.3266" xml:space="preserve" y="534.9699" clip-path="url(#clipPath2)" font-family="sans-serif" stroke="none">Manually Written</text>
      <text x="291.7778" xml:space="preserve" y="548.9387" clip-path="url(#clipPath2)" font-family="sans-serif" stroke="none">RD Parser</text>
    </g>
    <g fill="rgb(255,204,0)" text-rendering="geometricPrecision" shape-rendering="geometricPrecision" transform="matrix(1,0,0,1,-248,-329)" stroke="rgb(255,204,0)">
      <rect x="388.48" width="127.28" height="30" y="522.8" clip-path="url(#clipPath2)" stroke="none"/>
    </g>
    <g text-rendering="geometricPrecision" stroke-miterlimit="1.45" stroke-width="3" shape-rendering="geometricPrecision" transform="matrix(1,0,0,1,-248,-329)" stroke-linecap="butt">
      <rect fill="none" x="388.48" width="127.28" height="30" y="522.8" clip-path="url(#clipPath2)"/>
      <text x="392.8905" y="541.9543" clip-path="url(#clipPath2)" font-family="sans-serif" stroke="none" stroke-width="1" xml:space="preserve">Parser Combinators</text>
    </g>
    <g fill="rgb(255,204,0)" text-rendering="geometricPrecision" shape-rendering="geometricPrecision" transform="matrix(1,0,0,1,-248,-329)" stroke="rgb(255,204,0)">
      <rect x="524.84" width="109.36" height="30" y="522.8" clip-path="url(#clipPath2)" stroke="none"/>
    </g>
    <g text-rendering="geometricPrecision" stroke-miterlimit="1.45" shape-rendering="geometricPrecision" transform="matrix(1,0,0,1,-248,-329)" stroke-linecap="butt">
      <rect fill="none" x="524.84" width="109.36" height="30" y="522.8" clip-path="url(#clipPath2)"/>
      <text x="532.8765" xml:space="preserve" y="541.9543" clip-path="url(#clipPath2)" font-family="sans-serif" stroke="none">Packrat Parsers</text>
    </g>
    <g fill="rgb(255,204,0)" text-rendering="geometricPrecision" shape-rendering="geometricPrecision" transform="matrix(1,0,0,1,-248,-329)" stroke="rgb(255,204,0)">
      <rect x="643.28" width="96.56" height="30" y="524.16" clip-path="url(#clipPath2)" stroke="none"/>
    </g>
    <g text-rendering="geometricPrecision" stroke-miterlimit="1.45" shape-rendering="geometricPrecision" transform="matrix(1,0,0,1,-248,-329)" stroke-linecap="butt">
      <rect fill="none" x="643.28" width="96.56" height="30" y="524.16" clip-path="url(#clipPath2)"/>
      <text x="648.5141" xml:space="preserve" y="543.3143" clip-path="url(#clipPath2)" font-family="sans-serif" stroke="none">Regexp Based</text>
    </g>
    <g fill="rgb(255,204,0)" text-rendering="geometricPrecision" shape-rendering="geometricPrecision" transform="matrix(1,0,0,1,-248,-329)" stroke="rgb(255,204,0)">
      <rect x="750.36" width="138.8" height="30" y="524.16" clip-path="url(#clipPath2)" stroke="none"/>
    </g>
    <g text-rendering="geometricPrecision" stroke-miterlimit="1.45" shape-rendering="geometricPrecision" transform="matrix(1,0,0,1,-248,-329)" stroke-linecap="butt">
      <rect fill="none" x="750.36" width="138.8" height="30" y="524.16" clip-path="url(#clipPath2)"/>
      <text x="756.2708" xml:space="preserve" y="543.3143" clip-path="url(#clipPath2)" font-family="sans-serif" stroke="none">State-Machine Based</text>
    </g>
    <g fill="rgb(255,204,0)" text-rendering="geometricPrecision" shape-rendering="geometricPrecision" transform="matrix(1,0,0,1,-248,-329)" stroke="rgb(255,204,0)">
      <rect x="899.68" width="109.36" height="30" y="524.16" clip-path="url(#clipPath2)" stroke="none"/>
    </g>
    <g text-rendering="geometricPrecision" stroke-miterlimit="1.45" shape-rendering="geometricPrecision" transform="matrix(1,0,0,1,-248,-329)" stroke-linecap="butt">
      <rect fill="none" x="899.68" width="109.36" height="30" y="524.16" clip-path="url(#clipPath2)"/>
      <text x="911.528" xml:space="preserve" y="543.3143" clip-path="url(#clipPath2)" font-family="sans-serif" stroke="none">Top-Down / LL</text>
    </g>
    <g fill="rgb(255,204,0)" text-rendering="geometricPrecision" shape-rendering="geometricPrecision" transform="matrix(1,0,0,1,-248,-329)" stroke="rgb(255,204,0)">
      <rect x="1017.896" width="132.912" height="30" y="524.16" clip-path="url(#clipPath2)" stroke="none"/>
    </g>
    <g text-rendering="geometricPrecision" stroke-miterlimit="1.45" shape-rendering="geometricPrecision" transform="matrix(1,0,0,1,-248,-329)" stroke-linecap="butt">
      <rect fill="none" x="1017.896" width="132.912" height="30" y="524.16" clip-path="url(#clipPath2)"/>
      <text x="1038.6313" xml:space="preserve" y="543.3143" clip-path="url(#clipPath2)" font-family="sans-serif" stroke="none">Bottom-Up / LR</text>
      <text x="911.7272" xml:space="preserve" y="571.7379" clip-path="url(#clipPath2)" font-family="sans-serif" stroke="none">ANTLR (LL(*)),</text>
      <text x="933.3073" xml:space="preserve" y="585.7067" clip-path="url(#clipPath2)" font-family="sans-serif" stroke="none">JavaCC</text>
      <text x="666.2019" xml:space="preserve" y="573.3143" clip-path="url(#clipPath2)" font-family="sans-serif" stroke="none">lex, flex</text>
      <text x="1019.2763" xml:space="preserve" y="564.7535" clip-path="url(#clipPath2)" font-family="sans-serif" stroke="none">Yacc, Bison – LALR(1);</text>
      <text x="1044.9404" xml:space="preserve" y="578.7223" clip-path="url(#clipPath2)" font-family="sans-serif" stroke="none">ANTLR – GLR;</text>
      <text x="1071.6299" xml:space="preserve" y="592.691" clip-path="url(#clipPath2)" font-family="sans-serif" stroke="none">gocc</text>
      <text x="397.8644" xml:space="preserve" y="566.3299" clip-path="url(#clipPath2)" font-family="sans-serif" stroke="none">Arcsecond, nom,</text>
      <text x="434.922" xml:space="preserve" y="580.2986" clip-path="url(#clipPath2)" font-family="sans-serif" stroke="none">parc</text>
      <text x="540.4849" xml:space="preserve" y="564.7535" clip-path="url(#clipPath2)" font-family="sans-serif" stroke="none">go-packrat,</text>
      <text x="546.2856" xml:space="preserve" y="578.7223" clip-path="url(#clipPath2)" font-family="sans-serif" stroke="none">arpeggio,</text>
      <text x="527.3745" xml:space="preserve" y="592.691" clip-path="url(#clipPath2)" font-family="sans-serif" stroke="none">cpp-peglib, REX</text>
      <path fill="none" d="M635.6 370.8334 L500.0956 413.2" stroke-width="3" clip-path="url(#clipPath2)"/>
      <path fill="none" d="M709.76 368.5277 L844.96 402.3923" clip-path="url(#clipPath2)"/>
      <path fill="none" d="M452.12 443.2 L452.12 468" stroke-width="3" clip-path="url(#clipPath2)"/>
      <path fill="none" d="M855.1022 426.68 L780.8978 468" clip-path="url(#clipPath2)"/>
      <path fill="none" d="M910.2439 426.68 L980.7161 464.16" clip-path="url(#clipPath2)"/>
      <path fill="none" d="M416.3718 498 L357.2682 522.8" clip-path="url(#clipPath2)"/>
      <path fill="none" d="M452.12 498 L452.12 522.8" stroke-width="3" clip-path="url(#clipPath2)"/>
      <path fill="none" d="M486.9922 498 L544.6478 522.8" clip-path="url(#clipPath2)"/>
      <path fill="none" d="M737.2933 498 L708.2267 524.16" clip-path="url(#clipPath2)"/>
      <path fill="none" d="M771.5348 498 L802.1852 524.16" clip-path="url(#clipPath2)"/>
      <path fill="none" d="M995.28 494.16 L968 524.16" clip-path="url(#clipPath2)"/>
      <path fill="none" d="M1027.778 494.16 L1065.494 524.16" clip-path="url(#clipPath2)"/>
    </g>
  </g>
</svg>
